PathFileType	4	(x/y/z)	S08_BK_Cal_T01
DataRate	CameraRate	NumFrames	NumMarkers	Units	OrigDataRate	OrigDataStartFrame	OrigNumFrames
240	240	8	51	mm	240	2101	2400
Frame#	Time	Sternum			R.Acromium			L.Acromium			Top.Head			R.ASIS			L.ASIS			R.PSIS			L.PSIS			R.Great.Tro			L.Great.Tro			R.Iliac.Crest			L.Iliac.Crest			V.Sacral			R.Thigh.Upper.Post			R.Thigh.Lower.Ant			R.Thigh.Lower.Post			R.Thigh.Upper.Ant			R.Knee.Lat			R.Knee.Med			R.Shank.Upper.Post			R.Shank.Lower.Ant			R.Shank.Lower.Post			R.Shank.Upper.Ant			R.Ankle.Lat			R.Ankle.Med			R.Heel.Upper			R.Heel.Med			R.Heel.Lat			R.Toe.Lat			R.Toe.Med			R.Toe.Tip			L.Thigh.Upper.Post			L.Thigh.Lower.Ant			L.Thigh.Lower.Post			L.Thigh.Upper.Ant			L.Knee.Lat			L.Knee.Med			L.Shank.Upper.Post			L.Shank.Lower.Ant			L.Shank.Lower.Post			L.Shank.Upper.Ant			L.Ankle.Lat			L.Ankle.Med			L.Heel.Upper			L.Heel.Med			L.Heel.Lat			L.Toe.Lat			L.Toe.Med			L.Toe.Tip			Cervical.Spine			Back			
		X1	Y1	Z1	X2	Y2	Z2	X3	Y3	Z3	X4	Y4	Z4	X5	Y5	Z5	X6	Y6	Z6	X7	Y7	Z7	X8	Y8	Z8	X9	Y9	Z9	X10	Y10	Z10	X11	Y11	Z11	X12	Y12	Z12	X13	Y13	Z13	X14	Y14	Z14	X15	Y15	Z15	X16	Y16	Z16	X17	Y17	Z17	X18	Y18	Z18	X19	Y19	Z19	X20	Y20	Z20	X21	Y21	Z21	X22	Y22	Z22	X23	Y23	Z23	X24	Y24	Z24	X25	Y25	Z25	X26	Y26	Z26	X27	Y27	Z27	X28	Y28	Z28	X29	Y29	Z29	X30	Y30	Z30	X31	Y31	Z31	X32	Y32	Z32	X33	Y33	Z33	X34	Y34	Z34	X35	Y35	Z35	X36	Y36	Z36	X37	Y37	Z37	X38	Y38	Z38	X39	Y39	Z39	X40	Y40	Z40	X41	Y41	Z41	X42	Y42	Z42	X43	Y43	Z43	X44	Y44	Z44	X45	Y45	Z45	X46	Y46	Z46	X47	Y47	Z47	X48	Y48	Z48	X49	Y49	Z49	X50	Y50	Z50	X51	Y51	Z51	

2101	8.75	498.94	1161.6	319.15	409	1420.2	486.54	411.32	1440.9	152.14	421.47	1739	332.31	413.58	946.46	429.79	426.37	945.93	197.23	227.92	1026	346.47	239.22	1029.1	252.84	326.33	874.89	501.84	320.41	880.18	119.46	339.35	1040.2	469.92	364.41	1049.6	167.25	206.29	992.67	296.1	375.01	680.77	515.18	486.05	614.87	505.43	415.73	598.75	506.02	451.33	703.67	512.53	486.9	513.38	507.31	473.93	498.02	381.51	394.06	347.19	528	442.19	271.07	516.03	378.11	272.15	527.9	459.41	347.12	518.68	340.6	104.16	510.36	374.01	110.65	431.33	291.26	65.393	463.22	305.71	38.944	437.34	294.35	41.367	498.59	466.29	32.74	557.74	491.14	45.534	440.86	552.97	62.62	490.98	375.9	675.12	104.72	490.52	621.35	108.14	425.18	598.18	110.13	444.93	697.98	98.503	477.1	509.64	111.14	491.52	495.92	231.87	389.6	350.14	96.955	436.72	248.69	104.94	371.24	278.37	106.52	449.68	323.82	96.645	350.54	105.31	101.71	379.52	101.79	186.17	294.83	75.079	149.91	311.85	41.711	179.28	300.84	47.805	116.65	474.64	39.854	68.031	501.78	45.534	180.42	561.25	62.589	127.25	347.91	1481.7	309.8	267.76	1212.4	321.17
2102	8.7542	498.95	1161.6	319.16	409.02	1420.2	486.55	411.33	1440.9	152.15	421.47	1739	332.32	413.57	946.48	429.81	426.38	945.97	197.24	227.92	1026.1	346.48	239.23	1029.2	252.85	326.33	874.9	501.84	320.41	880.2	119.46	339.33	1040.2	469.94	364.39	1049.7	167.25	206.29	992.69	296.1	375.01	680.78	515.18	486.04	614.88	505.42	415.72	598.76	506.01	451.32	703.67	512.52	486.86	513.39	507.3	473.91	498.02	381.51	394.02	347.21	528.04	442.19	271.08	516.03	378.11	272.15	527.9	459.41	347.12	518.67	340.6	104.16	510.36	374.01	110.65	431.33	291.26	65.394	463.21	305.71	38.945	437.34	294.35	41.366	498.59	466.29	32.747	557.73	491.14	45.535	440.86	552.97	62.624	490.97	375.88	675.14	104.72	490.5	621.36	108.15	425.16	598.19	110.14	444.92	697.99	98.505	477.07	509.65	111.15	491.5	495.93	231.87	389.58	350.15	96.956	436.71	248.69	104.94	371.22	278.37	106.52	449.66	323.83	96.647	350.53	105.31	101.71	379.52	101.79	186.17	294.83	75.079	149.91	311.85	41.711	179.28	300.84	47.804	116.65	474.64	39.855	68.031	501.78	45.542	180.42	561.25	62.592	127.25	347.92	1481.7	309.81	267.77	1212.4	321.19
2103	8.7583	498.95	1161.6	319.17	409.03	1420.2	486.56	411.33	1440.9	152.16	421.47	1739	332.33	413.57	946.51	429.82	426.39	946	197.25	227.92	1026.1	346.48	239.23	1029.2	252.85	326.33	874.91	501.84	320.42	880.23	119.47	339.31	1040.2	469.95	364.38	1049.7	167.25	206.3	992.71	296.11	375	680.79	515.17	486.03	614.88	505.42	415.71	598.77	506	451.32	703.68	512.52	486.83	513.4	507.29	473.89	498.03	381.5	393.99	347.23	528.07	442.18	271.08	516.02	378.11	272.15	527.9	459.4	347.13	518.66	340.59	104.16	510.35	374.01	110.65	431.32	291.26	65.394	463.21	305.71	38.945	437.34	294.35	41.365	498.59	466.29	32.754	557.72	491.14	45.535	440.86	552.97	62.627	490.97	375.87	675.15	104.73	490.49	621.36	108.15	425.14	598.2	110.14	444.91	698	98.508	477.05	509.65	111.15	491.47	495.93	231.88	389.57	350.15	96.959	436.7	248.7	104.94	371.21	278.37	106.52	449.65	323.83	96.649	350.53	105.31	101.7	379.52	101.79	186.17	294.83	75.079	149.91	311.85	41.712	179.28	300.84	47.803	116.65	474.63	39.856	68.032	501.79	45.55	180.42	561.25	62.595	127.25	347.93	1481.7	309.82	267.77	1212.4	321.2
2104	8.7625	498.95	1161.6	319.18	409.04	1420.2	486.57	411.34	1440.9	152.17	421.47	1739.1	332.34	413.57	946.53	429.83	426.39	946.02	197.26	227.92	1026.1	346.48	239.24	1029.2	252.86	326.33	874.92	501.85	320.43	880.25	119.47	339.3	1040.2	469.97	364.37	1049.7	167.25	206.3	992.72	296.11	375	680.79	515.17	486.03	614.89	505.41	415.71	598.77	505.99	451.31	703.68	512.52	486.81	513.4	507.28	473.87	498.03	381.49	393.97	347.25	528.09	442.18	271.09	516.01	378.1	272.15	527.9	459.4	347.13	518.65	340.59	104.16	510.35	374.01	110.65	431.32	291.26	65.394	463.21	305.71	38.945	437.34	294.35	41.365	498.59	466.29	32.761	557.72	491.14	45.535	440.85	552.97	62.63	490.96	375.86	675.17	104.73	490.47	621.37	108.15	425.12	598.21	110.15	444.9	698.01	98.51	477.03	509.66	111.15	491.45	495.94	231.88	389.56	350.16	96.961	436.68	248.71	104.94	371.2	278.37	106.52	449.63	323.84	96.652	350.53	105.31	101.7	379.51	101.79	186.17	294.83	75.078	149.9	311.85	41.712	179.28	300.84	47.803	116.65	474.63	39.857	68.032	501.79	45.558	180.42	561.25	62.597	127.25	347.94	1481.7	309.83	267.77	1212.4	321.22
2105	8.7667	498.95	1161.6	319.2	409.05	1420.3	486.58	411.35	1440.9	152.18	421.47	1739.1	332.34	413.57	946.56	429.84	426.4	946.05	197.26	227.93	1026.1	346.49	239.24	1029.2	252.86	326.33	874.93	501.85	320.44	880.27	119.48	339.28	1040.2	469.99	364.36	1049.7	167.26	206.31	992.74	296.11	374.99	680.8	515.16	486.02	614.89	505.4	415.7	598.77	505.98	451.3	703.68	512.51	486.78	513.41	507.27	473.86	498.03	381.48	393.96	347.26	528.1	442.18	271.09	516.01	378.1	272.15	527.89	459.39	347.14	518.64	340.59	104.16	510.35	374.01	110.65	431.32	291.26	65.394	463.21	305.71	38.946	437.34	294.35	41.364	498.59	466.3	32.767	557.71	491.13	45.535	440.85	552.97	62.632	490.96	375.84	675.18	104.73	490.46	621.37	108.16	425.11	598.22	110.15	444.89	698.02	98.512	477.01	509.67	111.16	491.43	495.95	231.89	389.54	350.16	96.965	436.67	248.71	104.94	371.18	278.37	106.52	449.62	323.84	96.655	350.52	105.32	101.7	379.51	101.79	186.17	294.83	75.078	149.9	311.85	41.713	179.28	300.83	47.802	116.65	474.63	39.858	68.033	501.79	45.565	180.42	561.25	62.599	127.25	347.95	1481.7	309.84	267.77	1212.5	321.23
2106	8.7708	498.95	1161.7	319.21	409.06	1420.3	486.59	411.35	1440.9	152.2	421.47	1739.1	332.34	413.57	946.58	429.85	426.41	946.08	197.27	227.93	1026.1	346.49	239.25	1029.2	252.86	326.33	874.94	501.85	320.45	880.29	119.48	339.27	1040.2	470.01	364.35	1049.8	167.26	206.31	992.75	296.11	374.99	680.8	515.15	486.01	614.89	505.39	415.69	598.77	505.97	451.3	703.68	512.51	486.76	513.41	507.26	473.85	498.04	381.47	393.95	347.26	528.1	442.18	271.1	516	378.1	272.16	527.89	459.39	347.14	518.63	340.59	104.16	510.35	374	110.65	431.31	291.26	65.394	463.21	305.7	38.946	437.34	294.35	41.364	498.59	466.3	32.772	557.7	491.13	45.534	440.85	552.97	62.633	490.95	375.83	675.2	104.73	490.44	621.38	108.16	425.09	598.23	110.16	444.88	698.02	98.515	476.99	509.68	111.17	491.4	495.96	231.89	389.53	350.17	96.968	436.66	248.72	104.95	371.17	278.37	106.52	449.61	323.84	96.659	350.52	105.32	101.7	379.51	101.79	186.17	294.83	75.078	149.9	311.85	41.713	179.28	300.83	47.802	116.65	474.63	39.859	68.034	501.8	45.573	180.43	561.25	62.601	127.25	347.96	1481.8	309.85	267.78	1212.5	321.24
2107	8.775	498.96	1161.7	319.23	409.06	1420.3	486.6	411.36	1440.9	152.21	421.48	1739.1	332.34	413.57	946.6	429.86	426.41	946.1	197.28	227.93	1026.1	346.49	239.26	1029.3	252.86	326.33	874.94	501.85	320.46	880.31	119.48	339.26	1040.2	470.02	364.35	1049.8	167.26	206.32	992.76	296.12	374.98	680.81	515.14	486.01	614.89	505.38	415.69	598.78	505.96	451.29	703.68	512.5	486.74	513.42	507.25	473.84	498.04	381.46	393.95	347.26	528.1	442.18	271.1	515.99	378.1	272.16	527.88	459.39	347.14	518.62	340.59	104.16	510.35	374	110.65	431.31	291.26	65.395	463.21	305.7	38.947	437.34	294.35	41.365	498.59	466.3	32.777	557.7	491.13	45.534	440.84	552.97	62.634	490.95	375.83	675.21	104.74	490.43	621.38	108.17	425.08	598.24	110.17	444.87	698.03	98.518	476.97	509.68	111.18	491.38	495.97	231.9	389.52	350.18	96.972	436.66	248.72	104.95	371.16	278.37	106.53	449.59	323.85	96.663	350.51	105.32	101.7	379.51	101.79	186.17	294.83	75.078	149.9	311.85	41.713	179.28	300.83	47.802	116.65	474.63	39.86	68.034	501.8	45.579	180.43	561.24	62.603	127.25	347.97	1481.8	309.86	267.78	1212.5	321.26
2108	8.7792	498.96	1161.7	319.24	409.07	1420.3	486.62	411.37	1440.9	152.23	421.48	1739.1	332.34	413.57	946.62	429.87	426.42	946.12	197.29	227.94	1026.1	346.5	239.27	1029.3	252.87	326.33	874.95	501.85	320.47	880.33	119.49	339.25	1040.2	470.04	364.34	1049.8	167.26	206.32	992.78	296.12	374.98	680.81	515.13	486	614.89	505.38	415.68	598.78	505.95	451.29	703.68	512.5	486.72	513.42	507.24	473.84	498.05	381.46	393.96	347.26	528.08	442.18	271.11	515.99	378.1	272.16	527.88	459.39	347.14	518.62	340.59	104.16	510.35	374	110.65	431.31	291.26	65.395	463.21	305.7	38.947	437.34	294.35	41.365	498.58	466.3	32.781	557.7	491.13	45.533	440.84	552.97	62.634	490.95	375.82	675.22	104.74	490.42	621.38	108.18	425.06	598.24	110.17	444.87	698.04	98.522	476.96	509.69	111.18	491.36	495.97	231.91	389.51	350.18	96.976	436.65	248.73	104.95	371.15	278.37	106.53	449.58	323.85	96.667	350.51	105.32	101.7	379.51	101.79	186.18	294.83	75.078	149.9	311.85	41.713	179.28	300.83	47.802	116.65	474.63	39.861	68.035	501.8	45.585	180.43	561.24	62.604	127.25	347.98	1481.8	309.87	267.78	1212.5	321.27
